<?xml version="1.0" encoding="UTF-8"?>
<svg width="129px" height="51px" viewBox="0 0 129 51" version="1.1" xmlns="http://www.w3.org/2000/svg" xmlns:xlink="http://www.w3.org/1999/xlink">
	<title>logo</title>
	<g id="Page-1" stroke="none" stroke-width="1" fill="none" fill-rule="evenodd">
		<g id="final-step" transform="translate(-57.000000, -44.000000)">
			<g id="Group" transform="translate(57.000000, 44.000000)">
				<path d="M7.80433726,49.5880641 C10.5242093,49.5880641 13.1735786,48.1565886 14.4619752,45.8659522 C15.6072939,44.0031687 15.7503728,43.0728132 15.7503728,38.4908495 L15.7503707,30.9014744 L21.4057688,30.9014744 C25.8453455,30.9014744 28.2790608,28.8976855 28.2790608,25.1748828 C28.2790608,23.0985188 27.2768209,21.3808866 25.7022676,20.4498403 C24.4138711,19.7330663 23.3397469,19.5181031 20.619184,19.5181031 L15.7517545,19.5181031 L15.7517545,16.2252268 L23.6984798,16.2252268 C26.5621205,16.2252268 28.2085591,15.7241069 29.56884,14.5069038 C31.1440841,13.1459311 32.146324,10.8552946 32.146324,8.70773604 C32.146324,6.20075371 30.7860431,3.83823296 28.7096791,2.69291422 C26.8482782,1.61948086 25.9172319,1.47571115 20.7629537,1.47571115 L11.3121778,1.47571115 C6.51455905,1.47571115 5.15427816,1.69067436 3.43595516,2.8359931 C0.930355529,4.48243177 9.9475983e-14,6.63068118 9.9475983e-14,10.8552946 L9.9475983e-14,38.4196549 C9.9475983e-14,42.7873473 0.143078885,43.7888963 1.00223985,45.5079101 C2.21944292,47.9416254 4.94069658,49.5880641 7.80433726,49.5880641 Z M54.5757096,50.3082932 C68.6084503,50.3082932 79.9199362,39.0680008 79.9199362,25.1790298 C79.9199362,11.2893681 68.6796438,0.120959982 54.7187885,0.120959982 C40.9722056,0.120959982 29.5888343,11.2181746 29.5895251,24.6779099 C29.5895251,38.9961154 40.6148543,50.3082932 54.5757096,50.3082932 Z M54.7187885,34.5586123 C49.5645103,34.5586123 45.3398969,30.2621134 45.3398969,25.0366418 C45.3398969,20.0240598 49.635013,15.8720215 54.7187885,15.8734039 C59.8744483,15.8734039 64.1695644,20.0966371 64.1695644,25.1797207 C64.1695644,30.3339988 59.944951,34.5586123 54.7187885,34.5586123 Z M97.9857807,49.2307118 C107.007322,49.2307118 112.304678,47.5123888 117.316568,42.8578489 C122.186071,38.3470787 124.977828,31.9037132 124.977828,25.3172698 C124.977828,18.5158632 122.042302,12.0006134 117.030411,7.49053403 C112.448448,3.40899841 106.935438,1.47571221 99.7047956,1.47571221 L99.7047946,1.47502033 L90.1109397,1.47502033 C86.7454873,1.47502033 84.3829665,2.40537586 82.8084132,4.26815938 C81.3262275,6.10334329 81.0964011,6.96364914 81.0900902,11.9972784 L81.0900902,38.4922311 C81.0900902,43.073504 81.3050534,44.1476282 82.3072933,45.7228723 C84.0968098,48.3715508 86.24575,49.2307118 91.3281428,49.2307118 L97.9857807,49.2307118 Z M96.8404631,34.5530836 L96.8404631,16.1533425 L98.1288596,16.1533425 C100.921999,16.1533425 102.711515,16.44019 104.143681,17.1555823 C107.221595,18.5863659 109.226074,21.8806249 109.226074,25.3172709 C109.226074,28.3246813 107.722714,31.2595165 105.360194,32.9059552 C103.570677,34.2662361 102.28159,34.4811993 96.8404631,34.5530836 Z" id="FOD" fill="#085551" fill-rule="nonzero"></path>
				<path d="M122.998549,6.18004597 L122.998549,4.50182747 L123.16308,4.50182747 C123.349548,4.50182747 123.485744,4.5169095 123.571666,4.54707356 C123.657587,4.57723761 123.738939,4.63299542 123.81572,4.71434697 C123.892502,4.79569852 124.035095,4.99267896 124.243501,5.30528829 L124.243501,5.30528829 L124.83033,6.18004597 L125.801064,6.18004597 L125.310212,5.39578046 C125.116431,5.08317113 124.962412,4.86562429 124.848154,4.74313993 C124.733896,4.62065558 124.589017,4.50822591 124.413517,4.40585092 C124.766345,4.35466343 125.031423,4.23080798 125.208751,4.03428457 C125.386079,3.83776116 125.474743,3.58867916 125.474743,3.28703858 C125.474743,3.04938237 125.416243,2.83823396 125.299244,2.65359336 C125.182244,2.46895277 125.026396,2.340527 124.831701,2.26831608 C124.637005,2.19610515 124.324853,2.15999969 123.895244,2.15999969 L123.895244,2.15999969 L122.186861,2.15999969 L122.186861,6.18004597 L122.998549,6.18004597 Z M123.693388,3.85981291 L122.998549,3.86015569 L122.998549,2.84006209 L123.718475,2.8401754 C123.995866,2.84093082 124.164477,2.84546336 124.224306,2.85377302 C124.355931,2.87571052 124.457849,2.9282691 124.53006,3.01144878 C124.602271,3.09462846 124.638376,3.20385891 124.638376,3.33914014 C124.638376,3.45979637 124.610955,3.56034323 124.556111,3.64078072 C124.501267,3.72121821 124.4254,3.77789007 124.328509,3.81079632 C124.231619,3.84370256 123.988478,3.86015569 123.599087,3.86015569 L123.693388,3.85981291 Z" id="R" fill="#085551" fill-rule="nonzero"></path>
				<circle id="Oval" stroke="#085551" stroke-width="0.863999874" cx="123.914861" cy="4.31999937" r="3.88799943"></circle>
			</g>
		</g>
	</g>
</svg>
